<?xml version="1.0" encoding="UTF-8" standalone="no"?>
<!DOCTYPE svg PUBLIC "-//W3C//DTD SVG 1.1//EN" "http://www.w3.org/Graphics/SVG/1.1/DTD/svg11.dtd">
<svg width="100%" height="100%" viewBox="0 0 1078 1536" version="1.1" xmlns="http://www.w3.org/2000/svg" xmlns:xlink="http://www.w3.org/1999/xlink" xml:space="preserve" xmlns:serif="http://www.serif.com/" style="fill-rule:evenodd;clip-rule:evenodd;stroke-linejoin:round;stroke-miterlimit:2;">
    <g id="Artboard1" transform="matrix(0.526015,0,0,1,0,0)">
        <rect x="0" y="0" width="2048" height="1536" style="fill:none;"/>
        <clipPath id="_clip1">
            <rect x="0" y="0" width="2048" height="1536"/>
        </clipPath>
        <g clip-path="url(#_clip1)">
            <g transform="matrix(0.91743,0.875851,-1.2532,0.36321,868.797,-198.711)">
                <rect x="726.138" y="-504.817" width="403.829" height="2040.82" style="fill:rgb(200,200,200);"/>
            </g>
            <g transform="matrix(6.92468,0,0,3.64248,-3334.03,-2370.7)">
                <path d="M662.877,773.097C664.377,765.972 665.127,759.035 665.127,752.285C665.127,742.535 662.877,734.566 658.377,728.379C654.814,723.316 648.908,720.785 640.658,720.785C636.158,720.785 632.127,722.191 628.564,725.004C625.752,727.254 624.346,730.441 624.346,734.566C624.346,743.379 627.627,750.41 634.189,755.66C645.439,764.285 655.002,770.097 662.877,773.097ZM676.377,800.66C673.189,811.91 668.127,823.535 661.189,835.535C675.439,825.41 689.127,820.347 702.252,820.347C721.189,820.347 735.158,826.535 744.158,838.91C750.908,848.285 754.283,860.097 754.283,874.347C754.283,907.722 730.752,933.316 683.689,951.129C660.439,960.129 648.814,970.441 648.814,982.066C648.814,997.254 656.783,1004.85 672.721,1004.85C690.346,1004.85 700.471,1001.57 703.096,995.004C710.783,974.941 718.752,964.91 727.002,964.91C736.564,964.91 741.346,971.754 741.346,985.441C741.346,1009.25 717.346,1021.16 669.346,1021.16C638.221,1021.16 608.502,1009.53 580.189,986.285C550.002,961.347 534.908,929.566 534.908,890.941C534.908,836.566 554.783,809.379 594.533,809.379C610.096,809.379 624.064,820.066 636.439,841.441C648.252,818.566 655.377,801.972 657.814,791.66C642.439,784.535 617.221,767.941 582.158,741.879C571.658,734.191 560.783,730.347 549.533,730.347C536.783,730.347 525.627,736.254 516.064,748.066C509.877,755.754 506.783,763.722 506.783,771.972C506.783,777.597 508.424,781.863 511.705,784.769C514.986,787.675 516.627,791.285 516.627,795.597C516.627,799.16 514.564,802.441 510.439,805.441C505.002,809.754 500.783,811.91 497.783,811.91C492.908,811.91 488.596,808.441 484.846,801.504C482.596,797.754 481.471,790.16 481.471,778.722C481.471,761.097 490.283,745.254 507.908,731.191C522.158,719.754 538.189,714.035 556.002,714.035C571.939,714.035 583.658,716.847 591.158,722.472L608.314,735.41C608.314,722.847 611.408,714.222 617.596,709.535C624.158,704.66 633.346,702.222 645.158,702.222C656.783,702.222 666.346,706.91 673.846,716.285C681.533,726.41 685.377,738.035 685.377,751.16C685.377,763.16 684.158,773.754 681.721,782.941C690.908,785.566 702.064,786.879 715.189,786.879C726.627,786.879 735.533,784.347 741.908,779.285C748.846,773.847 752.314,768.785 752.314,764.097C752.314,754.535 750.721,748.347 747.533,745.535C741.158,740.097 737.971,735.785 737.971,732.597C737.971,723.972 739.564,717.597 742.752,713.472C747.439,707.285 754.096,704.191 762.721,704.191C772.471,704.191 780.533,709.535 786.908,720.222C790.096,725.285 791.689,731.847 791.689,739.91C791.689,758.472 780.814,774.972 759.064,789.41C744.439,798.972 728.033,803.754 709.846,803.754C699.908,803.754 688.752,802.722 676.377,800.66Z" style="fill:rgb(128,128,128);fill-rule:nonzero;"/>
            </g>
            <g transform="matrix(3.0654,0,0,1,0,0)">
                <rect x="0" y="0" width="87.941" height="1536"/>
            </g>
        </g>
    </g>
    <path d="M0,1348.86L0,882.155" style="fill:none;"/>
    <path d="M1077.28,288.589L1077.28,749.66" style="fill:none;"/>
</svg>
